<svg data-name="Group 10" xmlns="http://www.w3.org/2000/svg" width="20.075" height="16.311" viewBox="0 0 20.075 16.311"><g data-name="Group 37"><path data-name="Path 131" d="M20.075 1.931a8.58 8.58 0 0 1-2.371.65 4.092 4.092 0 0 0 1.81-2.275 8.225 8.225 0 0 1-2.61 1A4.115 4.115 0 0 0 9.785 4.12a4.238 4.238 0 0 0 .1.938A11.649 11.649 0 0 1 1.4.75a4.117 4.117 0 0 0 1.265 5.5A4.064 4.064 0 0 1 .8 5.744v.045a4.134 4.134 0 0 0 3.3 4.044 4.108 4.108 0 0 1-1.079.135 3.639 3.639 0 0 1-.779-.07 4.155 4.155 0 0 0 3.846 2.867 8.269 8.269 0 0 1-5.1 1.755A7.709 7.709 0 0 1 0 14.464a11.586 11.586 0 0 0 6.314 1.847A11.633 11.633 0 0 0 18.027 4.6c0-.182-.006-.358-.015-.532a8.21 8.21 0 0 0 2.063-2.137z" fill="#27a456"/></g></svg>