<svg data-name="Group 6" xmlns="http://www.w3.org/2000/svg" width="19.117" height="19.12" viewBox="0 0 19.117 19.12"><g data-name="Group 5" fill="#27a456"><path data-name="Path 5" d="M19.068 5.621a6.987 6.987 0 0 0-.444-2.32 4.9 4.9 0 0 0-2.8-2.8A7.005 7.005 0 0 0 13.502.06C12.483.011 12.158 0 9.562 0S6.641.011 5.621.056A6.988 6.988 0 0 0 3.302.5a4.665 4.665 0 0 0-1.7 1.106A4.708 4.708 0 0 0 .502 3.3 7 7 0 0 0 .06 5.618C.011 6.641.002 6.966.002 9.562s.009 2.921.054 3.938a6.987 6.987 0 0 0 .445 2.32 4.9 4.9 0 0 0 2.8 2.8 7.006 7.006 0 0 0 2.32.444c1.02.045 1.345.056 3.941.056s2.921-.011 3.941-.056a6.986 6.986 0 0 0 2.319-.444 4.891 4.891 0 0 0 2.8-2.8 7.01 7.01 0 0 0 .444-2.32c.045-1.02.056-1.345.056-3.941s-.009-2.918-.054-3.938zm-1.722 7.807a5.24 5.24 0 0 1-.329 1.774 3.172 3.172 0 0 1-1.815 1.816 5.261 5.261 0 0 1-1.774.329c-1.009.045-1.311.056-3.862.056s-2.857-.011-3.862-.056a5.239 5.239 0 0 1-1.774-.329 2.943 2.943 0 0 1-1.1-.713 2.973 2.973 0 0 1-.713-1.1 5.259 5.259 0 0 1-.329-1.774c-.045-1.008-.056-1.311-.056-3.862s.011-2.857.056-3.862a5.237 5.237 0 0 1 .329-1.774 2.906 2.906 0 0 1 .717-1.1 2.968 2.968 0 0 1 1.1-.713 5.262 5.262 0 0 1 1.774-.329c1.008-.045 1.311-.056 3.862-.056s2.857.011 3.862.056a5.24 5.24 0 0 1 1.774.329 2.94 2.94 0 0 1 1.1.713 2.972 2.972 0 0 1 .713 1.1 5.261 5.261 0 0 1 .329 1.774c.045 1.009.056 1.311.056 3.862s-.013 2.851-.058 3.859z"/><path data-name="Path 6" d="M9.562 4.65a4.912 4.912 0 1 0 4.909 4.912A4.913 4.913 0 0 0 9.562 4.65zm0 8.1a3.186 3.186 0 1 1 3.186-3.186 3.187 3.187 0 0 1-3.186 3.184z"/><path data-name="Path 7" d="M15.814 4.456a1.147 1.147 0 1 1-1.147-1.147 1.147 1.147 0 0 1 1.147 1.147z"/></g></svg>