<svg data-name="Group 6" xmlns="http://www.w3.org/2000/svg" width="12.541" height="12.543" viewBox="0 0 12.541 12.543"><g data-name="Group 5" fill="#656565"><path data-name="Path 5" d="M12.509 3.688a4.584 4.584 0 0 0-.292-1.522A3.213 3.213 0 0 0 10.382.331 4.6 4.6 0 0 0 8.86.039C8.189.007 7.976 0 6.273 0S4.357.007 3.688.037a4.584 4.584 0 0 0-1.522.291 3.06 3.06 0 0 0-1.113.725 3.088 3.088 0 0 0-.723 1.11 4.6 4.6 0 0 0-.291 1.522c-.032.672-.037.885-.037 2.588s.005 1.916.035 2.585a4.584 4.584 0 0 0 .292 1.522 3.213 3.213 0 0 0 1.835 1.835 4.6 4.6 0 0 0 1.522.292c.669.029.882.037 2.585.037s1.916-.007 2.585-.037a4.583 4.583 0 0 0 1.522-.292 3.208 3.208 0 0 0 1.835-1.835 4.6 4.6 0 0 0 .289-1.522c.029-.669.037-.882.037-2.585s-.001-1.916-.03-2.585zm-1.13 5.121a3.438 3.438 0 0 1-.216 1.164 2.081 2.081 0 0 1-1.191 1.191 3.451 3.451 0 0 1-1.164.216c-.662.029-.86.037-2.534.037s-1.872-.008-2.532-.038a3.437 3.437 0 0 1-1.164-.216 1.93 1.93 0 0 1-.72-.468 1.951 1.951 0 0 1-.468-.72 3.45 3.45 0 0 1-.216-1.164c-.029-.662-.037-.86-.037-2.534s.007-1.875.037-2.534a3.436 3.436 0 0 1 .215-1.163 1.907 1.907 0 0 1 .471-.72 1.947 1.947 0 0 1 .72-.468 3.452 3.452 0 0 1 1.164-.216c.662-.029.86-.037 2.534-.037s1.875.007 2.534.037a3.437 3.437 0 0 1 1.164.216 1.928 1.928 0 0 1 .72.468 1.95 1.95 0 0 1 .468.72 3.452 3.452 0 0 1 .216 1.164c.029.662.037.86.037 2.534s-.008 1.869-.038 2.531z"/><path data-name="Path 6" d="M6.272 3.051a3.222 3.222 0 1 0 3.222 3.222 3.223 3.223 0 0 0-3.222-3.222zm0 5.312a2.09 2.09 0 1 1 2.09-2.09 2.09 2.09 0 0 1-2.09 2.09z"/><path data-name="Path 7" d="M10.375 2.925a.752.752 0 1 1-.752-.752.752.752 0 0 1 .752.752z"/></g></svg>