<svg xmlns="http://www.w3.org/2000/svg" width="12.732" height="12.166" viewBox="0 0 12.732 12.166"><path data-name="Path 5" d="M12.732 7.462v4.7h-2.723V7.781c0-1.1-.389-1.857-1.379-1.857a1.491 1.491 0 0 0-1.4.99 1.936 1.936 0 0 0-.088.672v4.58H4.4s.035-7.445 0-8.205h2.726v1.167c0 .018-.018.018-.018.035h.018v-.035a2.706 2.706 0 0 1 2.458-1.362c1.8 0 3.148 1.167 3.148 3.7zM1.538 0A1.43 1.43 0 0 0 0 1.415a1.409 1.409 0 0 0 1.5 1.414h.018a1.42 1.42 0 0 0 1.541-1.414A1.4 1.4 0 0 0 1.538 0zM.159 12.166h2.723V3.961H.159zm0 0" fill="#fff"/></svg>