<svg data-name="Group 20" xmlns="http://www.w3.org/2000/svg" width="12.381" height="11.83" viewBox="0 0 12.381 11.83"><path data-name="Path 5" d="M12.381 7.256v4.574H9.733V7.566c0-1.066-.379-1.806-1.342-1.806a1.45 1.45 0 0 0-1.358.963 1.882 1.882 0 0 0-.086.653v4.454H4.282s.034-7.239 0-7.979H6.93v1.136c0 .017-.017.017-.017.034h.017v-.034a2.631 2.631 0 0 1 2.39-1.324c1.754 0 3.061 1.135 3.061 3.594zM1.5 0A1.39 1.39 0 0 0 0 1.376a1.37 1.37 0 0 0 1.462 1.375h.017a1.381 1.381 0 0 0 1.5-1.376A1.366 1.366 0 0 0 1.5 0zM.155 11.83H2.8V3.852H.155zm0 0" fill="#656565"/></svg>