<svg xmlns="http://www.w3.org/2000/svg" width="13.543" height="11.004" viewBox="0 0 13.543 11.004"><g data-name="Group 37"><path data-name="Path 131" d="M13.543 1.3a5.789 5.789 0 0 1-1.6.438A2.761 2.761 0 0 0 13.164.203a5.549 5.549 0 0 1-1.761.672 2.776 2.776 0 0 0-4.8 1.9 2.859 2.859 0 0 0 .064.633A7.859 7.859 0 0 1 .944.508 2.777 2.777 0 0 0 1.8 4.217a2.742 2.742 0 0 1-1.254-.342v.03A2.789 2.789 0 0 0 2.77 6.633a2.771 2.771 0 0 1-.728.091 2.455 2.455 0 0 1-.526-.047A2.8 2.8 0 0 0 4.11 8.611 5.579 5.579 0 0 1 .664 9.8 5.2 5.2 0 0 1 0 9.758 7.817 7.817 0 0 0 4.259 11a7.848 7.848 0 0 0 7.9-7.9c0-.123 0-.241-.01-.359A5.539 5.539 0 0 0 13.543 1.3z" fill="#fff"/></g></svg>