<svg xmlns="http://www.w3.org/2000/svg" width="32.336" height="32.336" viewBox="0 0 32.336 32.336"><g data-name="Group 322"><g data-name="Group 320"><ellipse data-name="Ellipse 39" cx="16.168" cy="16.168" rx="16.168" ry="16.168" fill="#002943"/></g><g data-name="Group 10"><g data-name="Group 37"><path data-name="Path 131" d="M22.309 13.218a5.789 5.789 0 0 1-1.6.438 2.761 2.761 0 0 0 1.221-1.535 5.549 5.549 0 0 1-1.761.672 2.776 2.776 0 0 0-4.8 1.9 2.859 2.859 0 0 0 .064.633 7.859 7.859 0 0 1-5.723-2.9 2.777 2.777 0 0 0 .856 3.709 2.742 2.742 0 0 1-1.254-.342v.03a2.789 2.789 0 0 0 2.224 2.728 2.771 2.771 0 0 1-.728.091 2.455 2.455 0 0 1-.526-.047 2.8 2.8 0 0 0 2.594 1.934 5.579 5.579 0 0 1-3.446 1.189 5.2 5.2 0 0 1-.664-.042 7.817 7.817 0 0 0 4.259 1.242 7.848 7.848 0 0 0 7.9-7.9c0-.123 0-.241-.01-.359a5.539 5.539 0 0 0 1.394-1.441z" fill="#fff"/></g></g></g></svg>