<svg data-name="Group 20" xmlns="http://www.w3.org/2000/svg" width="18.873" height="18.034" viewBox="0 0 18.873 18.034"><path data-name="Path 5" d="M18.873 11.061v6.972h-4.037v-6.5c0-1.625-.577-2.752-2.045-2.752a2.21 2.21 0 0 0-2.071 1.468 2.869 2.869 0 0 0-.131 1v6.789H6.527s.052-11.035 0-12.162h4.037V7.6c0 .026-.026.026-.026.052h.026V7.6a4.011 4.011 0 0 1 3.643-2.018c2.674 0 4.666 1.73 4.666 5.478zM2.28 0A2.119 2.119 0 0 0 0 2.1a2.089 2.089 0 0 0 2.228 2.1h.026a2.1 2.1 0 0 0 2.28-2.1A2.082 2.082 0 0 0 2.28 0zM.236 18.034h4.037V5.871H.236zm0 0" fill="#27a456"/></svg>