<svg xmlns="http://www.w3.org/2000/svg" width="32.336" height="32.336" viewBox="0 0 32.336 32.336"><g data-name="Group 321" transform="translate(-668.558 -1337.011)"><ellipse data-name="Ellipse 8" cx="16.168" cy="16.168" rx="16.168" ry="16.168" transform="translate(668.558 1337.011)" fill="#002943"/><g data-name="Group 20"><path data-name="Path 5" d="M691.192 1354.353v4.7h-2.723v-4.381c0-1.1-.389-1.857-1.379-1.857a1.491 1.491 0 0 0-1.4.99 1.936 1.936 0 0 0-.088.672v4.58h-2.742s.035-7.445 0-8.205h2.726v1.167c0 .018-.018.018-.018.035h.018v-.035a2.706 2.706 0 0 1 2.458-1.362c1.8 0 3.148 1.167 3.148 3.7zm-11.194-7.462a1.43 1.43 0 0 0-1.538 1.415 1.409 1.409 0 0 0 1.5 1.414h.018a1.42 1.42 0 0 0 1.541-1.414 1.4 1.4 0 0 0-1.521-1.415zm-1.379 12.166h2.723v-8.205h-2.723zm0 0" fill="#fff"/></g></g></svg>