<svg id="Group_20" data-name="Group 20" xmlns="http://www.w3.org/2000/svg" width="18.873" height="18.034" viewBox="0 0 18.873 18.034">
  <path id="Path_5" data-name="Path 5" d="M19.373,11.561v6.972H15.336v-6.5c0-1.625-.577-2.752-2.045-2.752a2.21,2.21,0,0,0-2.071,1.468,2.869,2.869,0,0,0-.131,1v6.789H7.027s.052-11.035,0-12.162h4.037V8.1c0,.026-.026.026-.026.052h.026V8.1a4.011,4.011,0,0,1,3.643-2.018c2.674,0,4.666,1.73,4.666,5.478ZM2.78.5A2.119,2.119,0,0,0,.5,2.6a2.089,2.089,0,0,0,2.228,2.1h.026a2.1,2.1,0,0,0,2.28-2.1A2.082,2.082,0,0,0,2.78.5ZM.736,18.534H4.773V6.371H.736Zm0,0" transform="translate(-0.5 -0.5)" fill="#27a456"/>
</svg>
