<svg xmlns="http://www.w3.org/2000/svg" width="13.169" height="10.7" viewBox="0 0 13.169 10.7">
  <g id="Group_10" data-name="Group 10" transform="translate(0 0)">
    <g id="Group_37" data-name="Group 37" transform="translate(0 0)">
      <path id="Path_131" data-name="Path 131" d="M13.169,49.267a5.629,5.629,0,0,1-1.556.426A2.685,2.685,0,0,0,12.8,48.2a5.4,5.4,0,0,1-1.712.654A2.7,2.7,0,0,0,6.419,50.7a2.78,2.78,0,0,0,.063.616A7.642,7.642,0,0,1,.917,48.492a2.7,2.7,0,0,0,.83,3.608,2.666,2.666,0,0,1-1.22-.333v.03A2.712,2.712,0,0,0,2.69,54.45a2.7,2.7,0,0,1-.708.089,2.387,2.387,0,0,1-.511-.046,2.726,2.726,0,0,0,2.523,1.881A5.425,5.425,0,0,1,.646,57.526,5.056,5.056,0,0,1,0,57.488,7.6,7.6,0,0,0,4.142,58.7a7.631,7.631,0,0,0,7.684-7.683c0-.119,0-.235-.01-.349A5.386,5.386,0,0,0,13.169,49.267Z" transform="translate(0 -48)" fill="#656565"/>
    </g>
  </g>
</svg>
