<svg id="Group_6" data-name="Group 6" xmlns="http://www.w3.org/2000/svg" width="19.117" height="19.12" viewBox="0 0 19.117 19.12">
  <g id="Group_5" data-name="Group 5" transform="translate(0 0)">
    <path id="Path_5" data-name="Path 5" d="M19.966,5.621a6.987,6.987,0,0,0-.444-2.32,4.9,4.9,0,0,0-2.8-2.8A7.005,7.005,0,0,0,14.4.06C13.381.011,13.056,0,10.46,0S7.539.011,6.519.056A6.988,6.988,0,0,0,4.2.5,4.665,4.665,0,0,0,2.5,1.606,4.708,4.708,0,0,0,1.4,3.3,7,7,0,0,0,.958,5.618C.909,6.641.9,6.966.9,9.562S.909,12.483.954,13.5a6.987,6.987,0,0,0,.445,2.32,4.9,4.9,0,0,0,2.8,2.8,7.006,7.006,0,0,0,2.32.444c1.02.045,1.345.056,3.941.056s2.921-.011,3.941-.056a6.986,6.986,0,0,0,2.319-.444,4.891,4.891,0,0,0,2.8-2.8,7.01,7.01,0,0,0,.444-2.32c.045-1.02.056-1.345.056-3.941S20.011,6.641,19.966,5.621Zm-1.722,7.807a5.24,5.24,0,0,1-.329,1.774A3.172,3.172,0,0,1,16.1,17.018a5.261,5.261,0,0,1-1.774.329c-1.009.045-1.311.056-3.862.056s-2.857-.011-3.862-.056a5.239,5.239,0,0,1-1.774-.329,2.943,2.943,0,0,1-1.1-.713,2.973,2.973,0,0,1-.713-1.1,5.259,5.259,0,0,1-.329-1.774c-.045-1.008-.056-1.311-.056-3.862s.011-2.857.056-3.862a5.237,5.237,0,0,1,.329-1.774,2.906,2.906,0,0,1,.717-1.1,2.968,2.968,0,0,1,1.1-.713,5.262,5.262,0,0,1,1.774-.329c1.008-.045,1.311-.056,3.862-.056s2.857.011,3.862.056a5.24,5.24,0,0,1,1.774.329,2.94,2.94,0,0,1,1.1.713,2.972,2.972,0,0,1,.713,1.1,5.261,5.261,0,0,1,.329,1.774c.045,1.009.056,1.311.056,3.862S18.289,12.42,18.244,13.428Z" transform="translate(-0.898 0)" fill="#27a456"/>
    <path id="Path_6" data-name="Path 6" d="M130.091,124.281A4.912,4.912,0,1,0,135,129.193,4.913,4.913,0,0,0,130.091,124.281Zm0,8.1a3.186,3.186,0,1,1,3.186-3.186A3.187,3.187,0,0,1,130.091,132.379Z" transform="translate(-120.529 -119.631)" fill="#27a456"/>
    <path id="Path_7" data-name="Path 7" d="M364.554,89.593a1.147,1.147,0,1,1-1.147-1.147A1.147,1.147,0,0,1,364.554,89.593Z" transform="translate(-348.74 -85.137)" fill="#27a456"/>
  </g>
</svg>
