<svg id="Group_20" data-name="Group 20" xmlns="http://www.w3.org/2000/svg" width="12.381" height="11.83" viewBox="0 0 12.381 11.83">
  <path id="Path_5" data-name="Path 5" d="M12.881,7.756V12.33H10.233V8.066C10.233,7,9.854,6.26,8.891,6.26a1.45,1.45,0,0,0-1.358.963,1.882,1.882,0,0,0-.086.653V12.33H4.782s.034-7.239,0-7.979H7.43V5.487c0,.017-.017.017-.017.034H7.43V5.487A2.631,2.631,0,0,1,9.82,4.163c1.754,0,3.061,1.135,3.061,3.594ZM2,.5A1.39,1.39,0,0,0,.5,1.876,1.37,1.37,0,0,0,1.962,3.251h.017a1.381,1.381,0,0,0,1.5-1.376A1.366,1.366,0,0,0,2,.5ZM.655,12.33H3.3V4.352H.655Zm0,0" transform="translate(-0.5 -0.5)" fill="#656565"/>
</svg>
