<svg xmlns="http://www.w3.org/2000/svg" width="32.336" height="32.336" viewBox="0 0 32.336 32.336">
  <g id="Group_321" data-name="Group 321" transform="translate(-668.558 -1337.011)">
    <ellipse id="Ellipse_8" data-name="Ellipse 8" cx="16.168" cy="16.168" rx="16.168" ry="16.168" transform="translate(668.558 1337.011)" fill="#002943"/>
    <g id="Group_20" data-name="Group 20" transform="translate(678.46 1346.891)">
      <path id="Path_5" data-name="Path 5" d="M13.232,7.962v4.7H10.509V8.281c0-1.1-.389-1.857-1.379-1.857a1.491,1.491,0,0,0-1.4.99,1.936,1.936,0,0,0-.088.672v4.58H4.9s.035-7.445,0-8.205H7.626V5.628c0,.018-.018.018-.018.035h.018V5.628a2.706,2.706,0,0,1,2.458-1.362c1.8,0,3.148,1.167,3.148,3.7ZM2.038.5A1.43,1.43,0,0,0,.5,1.915,1.409,1.409,0,0,0,2,3.329h.018A1.42,1.42,0,0,0,3.559,1.915,1.4,1.4,0,0,0,2.038.5ZM.659,12.666H3.382V4.461H.659Zm0,0" transform="translate(-0.5 -0.5)" fill="#fff"/>
    </g>
  </g>
</svg>
